<?xml version="1.0" standalone="no"?>
<!DOCTYPE svg PUBLIC "-//W3C//DTD SVG 20010904//EN"
 "http://www.w3.org/TR/2001/REC-SVG-20010904/DTD/svg10.dtd">
<svg version="1.0" xmlns="http://www.w3.org/2000/svg"
 width="90.000000pt" height="90.000000pt" viewBox="0 0 90.000000 90.000000"
 preserveAspectRatio="xMidYMid meet">
<metadata>
Created by potrace 1.11, written by Peter Selinger 2001-2013
</metadata>
<g transform="translate(0.000000,90.000000) scale(0.100000,-0.100000)"
fill="#000000" stroke="none">
<path d="M346 830 c-224 -57 -354 -284 -286 -502 35 -112 107 -194 217 -246
52 -24 70 -27 163 -27 99 0 110 2 171 32 155 77 250 257 220 419 -35 187 -185
321 -369 330 -42 2 -94 -1 -116 -6z m221 -72 c69 -25 145 -95 179 -165 39 -78
44 -186 14 -265 -45 -121 -165 -213 -293 -225 -254 -23 -448 244 -343 473 79
174 262 249 443 182z"/>
<path d="M425 707 l6 -32 -65 -13 c-81 -15 -109 -15 -123 -1 -15 15 -36 1 -29
-18 4 -8 -12 -75 -35 -149 -23 -74 -39 -137 -37 -139 3 -3 22 50 43 117 21 68
40 127 43 132 3 6 25 -51 48 -124 24 -74 41 -137 38 -140 -3 -3 -44 -5 -90 -5
-46 0 -84 -3 -84 -7 0 -3 14 -18 31 -32 51 -43 117 -29 147 30 9 17 3 49 -32
163 -24 77 -43 141 -42 142 2 1 122 12 151 13 l30 1 -2 -65 c-1 -36 -5 -118
-9 -182 l-6 -117 -36 -18 c-47 -23 -47 -44 -2 -56 41 -11 157 -4 172 11 10 10
-35 52 -58 52 -18 0 -22 32 -30 218 l-6 164 43 -7 c24 -4 65 -7 91 -8 27 -1
48 -6 48 -10 0 -4 -18 -67 -40 -138 -22 -72 -40 -137 -40 -146 0 -8 13 -28 29
-44 41 -40 91 -40 132 0 16 16 29 35 29 43 0 7 -18 71 -40 143 -22 72 -40 142
-40 158 0 29 -17 36 -38 15 -9 -9 -29 -9 -89 1 -79 13 -100 25 -82 48 13 15 3
33 -17 33 -11 0 -13 -8 -9 -33z m265 -232 c22 -70 38 -130 35 -133 -9 -9 -113
-15 -140 -8 -19 5 -25 12 -21 24 28 101 78 253 82 249 2 -2 22 -62 44 -132z"/>
<path d="M300 211 c0 -18 29 -32 84 -41 89 -14 208 12 190 42 -4 7 -9 6 -13
-1 -20 -32 -190 -35 -238 -5 -13 8 -23 10 -23 5z"/>
</g>
</svg>
